<svg xmlns="http://www.w3.org/2000/svg" width="41.12" height="41.12" viewBox="0 0 41.12 41.12">
  <g id="Group_612" data-name="Group 612" transform="translate(-3.125 -3.125)">
    <path id="Path_3481" data-name="Path 3481" d="M33.425,29.688A2.75,2.75,0,0,0,30.7,32.162,3.908,3.908,0,0,0,28.2,37.775a3.916,3.916,0,0,0,2.488,7.086,2.742,2.742,0,0,0,5.483-.1V32.429a2.741,2.741,0,0,0-2.741-2.741ZM34.8,44.765a1.371,1.371,0,1,1-2.741,0,1.341,1.341,0,0,1,.1-.507.707.707,0,0,0-.137-.726.7.7,0,0,0-.5-.212.812.812,0,0,0-.219.034,2.542,2.542,0,0,1-1.85-4.729.691.691,0,0,0,.384-.466.68.68,0,0,0-.137-.589,2.506,2.506,0,0,1-.576-1.611,2.561,2.561,0,0,1,2.337-2.536.689.689,0,0,0,.48-.26.679.679,0,0,0,.137-.535,1.823,1.823,0,0,1-.021-.192,1.371,1.371,0,1,1,2.741,0V44.772Z" transform="translate(-13.166 -14.912)" fill="#9eb3cf"/>
    <path id="Path_3482" data-name="Path 3482" d="M59.541,37.775a3.908,3.908,0,0,0-2.495-5.613,2.741,2.741,0,0,0-5.469.267V44.765a2.742,2.742,0,0,0,5.483.1,3.916,3.916,0,0,0,2.488-7.086ZM57.252,43.49a2.505,2.505,0,0,1-.809-.137.686.686,0,0,0-.713.178.677.677,0,0,0-.137.726,1.315,1.315,0,0,1,.1.507,1.371,1.371,0,1,1-2.741,0V32.429a1.371,1.371,0,1,1,2.741,0c0,.069-.014.13-.021.206a.674.674,0,0,0,.144.528.7.7,0,0,0,.48.26,2.556,2.556,0,0,1,2.337,2.536,2.506,2.506,0,0,1-.576,1.611.683.683,0,0,0,.247,1.055,2.545,2.545,0,0,1-1.042,4.866Z" transform="translate(-27.2 -14.912)" fill="#9eb3cf"/>
    <path id="Path_3483" data-name="Path 3483" d="M36.707,18.2h2.152a2.741,2.741,0,1,0,0-1.371H36.707V14.776a4.115,4.115,0,0,0-4.112-4.112H29.168V9.293a2.741,2.741,0,0,1,2.741-2.741h6.949a2.741,2.741,0,1,0,0-1.371H31.909A4.115,4.115,0,0,0,27.8,9.293v1.371H19.573V9.293a4.115,4.115,0,0,0-4.112-4.112H8.512a2.741,2.741,0,1,0,0,1.371h6.949A2.741,2.741,0,0,1,18.2,9.293v1.371H14.776a4.115,4.115,0,0,0-4.112,4.112v2.056H8.512a2.741,2.741,0,1,0,0,1.371h2.152V29.168H8.512a2.741,2.741,0,1,0,0,1.371h2.152v2.056a4.115,4.115,0,0,0,4.112,4.112H18.2v1.371a2.741,2.741,0,0,1-2.741,2.741H8.512a2.741,2.741,0,1,0,0,1.371h6.949a4.115,4.115,0,0,0,4.112-4.112V36.706H27.8v1.371a4.115,4.115,0,0,0,4.112,4.112h6.949a2.741,2.741,0,1,0,0-1.371H31.909a2.741,2.741,0,0,1-2.741-2.741V36.706h3.427a4.115,4.115,0,0,0,4.112-4.112V30.538h2.152a2.741,2.741,0,1,0,0-1.371H36.707Zm4.8-2.056a1.371,1.371,0,1,1-1.371,1.371A1.375,1.375,0,0,1,41.5,16.146Zm0-11.65a1.371,1.371,0,1,1-1.371,1.371A1.375,1.375,0,0,1,41.5,4.5ZM5.867,7.237A1.371,1.371,0,1,1,7.238,5.867,1.375,1.375,0,0,1,5.867,7.237Zm0,11.65a1.371,1.371,0,1,1,1.371-1.371A1.375,1.375,0,0,1,5.867,18.888Zm0,12.336a1.371,1.371,0,1,1,1.371-1.371A1.375,1.375,0,0,1,5.867,31.224Zm0,11.65A1.371,1.371,0,1,1,7.238,41.5,1.375,1.375,0,0,1,5.867,42.874ZM41.5,40.133A1.371,1.371,0,1,1,40.134,41.5,1.375,1.375,0,0,1,41.5,40.133Zm0-11.65a1.371,1.371,0,1,1-1.371,1.371A1.375,1.375,0,0,1,41.5,28.482Zm-6.168,4.112A2.741,2.741,0,0,1,32.6,35.336H14.777a2.741,2.741,0,0,1-2.741-2.741V14.776a2.741,2.741,0,0,1,2.741-2.741H32.6a2.741,2.741,0,0,1,2.741,2.741Z" transform="translate(0)" fill="#9eb3cf"/>
  </g>
</svg>
