<svg xmlns="http://www.w3.org/2000/svg" width="36.694" height="38.388" viewBox="0 0 36.694 38.388">
  <g id="Group_613" data-name="Group 613" transform="translate(-8.18 -6.249)">
    <path id="Path_3485" data-name="Path 3485" d="M10.818,67.332a.685.685,0,0,0-.685.686v8.235a2.677,2.677,0,0,0,2.665,2.67H34.565a2.677,2.677,0,0,0,2.665-2.67l0-8.041a.685.685,0,0,0-1.371,0v8.041a1.278,1.278,0,0,1-1.292,1.3H12.8a1.28,1.28,0,0,1-1.294-1.3V68.018A.685.685,0,0,0,10.818,67.332Z" transform="translate(-1.096 -34.285)" fill="#9eb3cf"/>
    <path id="Path_3486" data-name="Path 3486" d="M24.01,6.25a3.579,3.579,0,0,0-3.568,3.568v8.209a.685.685,0,0,0,1.371,0V9.818a2.184,2.184,0,0,1,2.2-2.2H38.04v3.258a2.67,2.67,0,0,0,2.661,2.66l2.8.009v23.3a2.186,2.186,0,0,1-2.2,2.2H37.723a.685.685,0,0,0,0,1.371H41.3a3.579,3.579,0,0,0,3.568-3.568l0-23.291a3.123,3.123,0,0,0-.788-2.074L40.257,7.171A2.75,2.75,0,0,0,38.2,6.249Zm15.4,2.036,3.45,3.883H40.7a1.279,1.279,0,0,1-1.29-1.289ZM18.772,20.011a2.017,2.017,0,0,0-2.005,2.005v1.77H10.975a2.808,2.808,0,0,0-2.8,2.8v4.219A1.39,1.39,0,0,0,9.2,32.143l11.263,3.037v1.558a1.116,1.116,0,0,0,1.1,1.1H23.6a1.116,1.116,0,0,0,1.1-1.1V35.181l11.263-3.038a1.391,1.391,0,0,0,1.025-1.337V26.587a2.809,2.809,0,0,0-2.8-2.8H28.422v-1.77a2.017,2.017,0,0,0-2.005-2.005Zm0,1.371h7.645a.619.619,0,0,1,.634.634v1.77H18.14v-1.77a.619.619,0,0,1,.634-.634Zm-7.8,3.774H34.193a1.415,1.415,0,0,1,1.424,1.429l-.005,4.226c0,.01-10.91,2.949-10.91,2.949v-.944a1.116,1.116,0,0,0-1.1-1.1H21.569a1.116,1.116,0,0,0-1.1,1.1v.944L9.556,30.813c-.009,0-.005-4.226-.005-4.226a1.418,1.418,0,0,1,1.424-1.429Zm10.862,7.928h1.493v1.563l0,0,0,0v1.817H21.837V34.651l0,0s0,0,0,0Z" transform="translate(0 0)" fill="#9eb3cf"/>
    <path id="Path_3487" data-name="Path 3487" d="M47.6,14.488a.686.686,0,0,0,0,1.371H54.7a.686.686,0,1,0,0-1.371Z" transform="translate(-21.741 -4.624)" fill="#9eb3cf"/>
    <path id="Path_3488" data-name="Path 3488" d="M47.6,21.875a.686.686,0,1,0,0,1.371h8.744a.686.686,0,1,0,0-1.371Z" transform="translate(-21.741 -8.77)" fill="#9eb3cf"/>
    <path id="Path_3489" data-name="Path 3489" d="M47.6,29.262a.686.686,0,1,0,0,1.371H54.7a.686.686,0,0,0,0-1.371Z" transform="translate(-21.741 -12.917)" fill="#9eb3cf"/>
  </g>
</svg>
