<svg xmlns="http://www.w3.org/2000/svg" width="43.783" height="43.783" viewBox="0 0 43.783 43.783">
  <path id="Path_3484" data-name="Path 3484" d="M33.244,33.174c2.495-4.1,3.795-9.366.106-13.057a9.162,9.162,0,0,0-12.916,0c-3.691,3.691-2.389,8.954.106,13.057L26.892,43.62ZM23,22.679a5.508,5.508,0,1,1,0,7.79,5.508,5.508,0,0,1,0-7.79Zm3.895-.142a4.038,4.038,0,1,1-4.038,4.038A4.038,4.038,0,0,1,26.892,22.538ZM32.385,37.4a11.852,11.852,0,0,0,6.363-10.513.737.737,0,0,1,.736-.736h8.562a.736.736,0,0,1,.737.736v3.451a.736.736,0,0,1-.736.736H45.288A18.839,18.839,0,0,1,42.86,36.94l1.951,1.951a.736.736,0,0,1,0,1.041l-4.882,4.88a.736.736,0,0,1-1.041,0L36.938,42.86a18.84,18.84,0,0,1-5.862,2.428v2.759a.736.736,0,0,1-.734.736h-6.9a.736.736,0,0,1-.736-.736V45.288a18.839,18.839,0,0,1-5.862-2.428l-1.951,1.951a.736.736,0,0,1-1.041,0l-4.88-4.882a.736.736,0,0,1,0-1.041l1.951-1.951a18.839,18.839,0,0,1-2.428-5.862H5.736A.736.736,0,0,1,5,30.342V26.892a.736.736,0,0,1,.736-.736H14.3a.737.737,0,0,1,.737.736A11.852,11.852,0,0,0,21.4,37.4l-2.111-3.472a15.824,15.824,0,0,1-2.608-8.713H7.5a.734.734,0,0,1-.723-.872,7.565,7.565,0,0,1,12.345-4.992,10.632,10.632,0,0,1,15.535,0,7.565,7.565,0,0,1,12.352,5.059.737.737,0,0,1-.73.806H37.1A15.824,15.824,0,0,1,34.5,33.932L32.385,37.4ZM22.7,39.545l3.56,5.854a.733.733,0,0,0,1.259.01l3.565-5.864A13.339,13.339,0,0,0,40.2,27.627h7.111v1.979H44.692a.737.737,0,0,0-.73.64,17.222,17.222,0,0,1-2.654,6.382.736.736,0,0,0,.09.931h0l1.853,1.853L39.412,43.25,37.559,41.4a.737.737,0,0,0-.959-.07,17.214,17.214,0,0,1-6.4,2.643.734.734,0,0,0-.6.721h0v2.619H24.177V44.692a.737.737,0,0,0-.64-.73,17.221,17.221,0,0,1-6.382-2.654.736.736,0,0,0-.931.09h0l-1.853,1.853-3.839-3.839,1.853-1.853a.737.737,0,0,0,.07-.959,17.221,17.221,0,0,1-2.643-6.4.735.735,0,0,0-.721-.6H6.472v-1.98h7.111A13.34,13.34,0,0,0,22.7,39.546ZM35.573,20.5a6.095,6.095,0,0,1,9.841,3.244H36.925A8.865,8.865,0,0,0,35.573,20.5ZM16.858,23.747H8.37A6.1,6.1,0,0,1,18.21,20.5a8.862,8.862,0,0,0-1.352,3.244ZM26.892,5a4.958,4.958,0,1,0,4.958,4.958A4.958,4.958,0,0,0,26.892,5Zm2.465,2.493a3.486,3.486,0,1,1-4.93,0,3.486,3.486,0,0,1,4.93,0ZM39.485,8.806a3.911,3.911,0,1,1-3.911,3.911A3.911,3.911,0,0,1,39.485,8.806Zm1.725,2.186a2.44,2.44,0,1,0,0,3.45A2.44,2.44,0,0,0,41.21,10.992ZM14.3,8.8a3.911,3.911,0,1,1-3.911,3.911A3.911,3.911,0,0,1,14.3,8.8Zm1.725,2.186a2.44,2.44,0,1,0,0,3.45,2.44,2.44,0,0,0,0-3.45Z" transform="translate(-5 -5)" fill="#9eb3cf" fill-rule="evenodd"/>
</svg>
